<?xml version="1.0" encoding="UTF-8" standalone="no" ?>
<!DOCTYPE svg PUBLIC "-//W3C//DTD SVG 1.1//EN" "http://www.w3.org/Graphics/SVG/1.1/DTD/svg11.dtd">
<svg xmlns="http://www.w3.org/2000/svg" xmlns:xlink="http://www.w3.org/1999/xlink" version="1.1" width="256" height="256" viewBox="0 0 256 256" xml:space="preserve">
<desc>Created with Fabric.js 5.2.4</desc>
<defs>
</defs>
<g transform="matrix(0 0 0 0 0 0)" id="57e3d7b4-0072-41c1-b7c5-b5e5b64faf12"  >
</g>
<g transform="matrix(1 0 0 1 128 128)" id="999ccbe6-6962-49e0-b9d8-5d17abf4de4c"  >
<rect style="stroke: none; stroke-width: 1; stroke-dasharray: none; stroke-linecap: butt; stroke-dashoffset: 0; stroke-linejoin: miter; stroke-miterlimit: 4; fill: rgb(255,255,255); fill-rule: nonzero; opacity: 1; visibility: hidden;" vector-effect="non-scaling-stroke"  x="-128" y="-128" rx="0" ry="0" width="256" height="256" />
</g>
<g transform="matrix(8.34 0 0 8.34 113 128)"  >
<g style="" vector-effect="non-scaling-stroke"   >
		<g transform="matrix(1.33 0 0 -1.33 -0.12 -0.04)"  >
<path style="stroke: none; stroke-width: 1; stroke-dasharray: none; stroke-linecap: butt; stroke-dashoffset: 0; stroke-linejoin: miter; stroke-miterlimit: 4; fill: rgb(255,255,255); fill-rule: nonzero; opacity: 1;" vector-effect="non-scaling-stroke"  transform=" translate(-33.44, -12.16)" d="M 0 0 L 66.878 0 L 66.878 24.32 L 0 24.32 Z" stroke-linecap="round" />
</g>
		<g transform="matrix(1.33 0 0 -1.33 -23.62 -0.04)" clip-path="url(#CLIPPATH_4)"  >
<clipPath id="CLIPPATH_4" >
	<path transform="matrix(1 0 0 1 17.67 0) translate(-33.44, -12.16)" d="M 0 24.32 L 66.878 24.32 L 66.878 0 L 0 0 Z" stroke-linecap="round" />
</clipPath>
<path style="stroke: none; stroke-width: 1; stroke-dasharray: none; stroke-linecap: butt; stroke-dashoffset: 0; stroke-linejoin: miter; stroke-miterlimit: 4; fill: rgb(0,0,145); fill-rule: nonzero; opacity: 1;" vector-effect="non-scaling-stroke"  transform=" translate(3.85, -5.26)" d="M 0 0 C -0.046 0.046 0.138 0 0.184 0.092 L -0.184 0.092 C -0.23 0.092 -0.23 0.138 -0.23 0.185 C -0.46 0.138 -0.735 0.046 -0.965 0 C -1.287 -0.092 -1.562 -0.322 -1.93 -0.414 C -2.437 -0.597 -2.849 -1.011 -3.401 -1.195 C -3.4469999999999996 -1.195 -3.4469999999999996 -1.1480000000000001 -3.4469999999999996 -1.103 C -3.401 -0.965 -3.2169999999999996 -0.919 -3.1249999999999996 -0.7809999999999999 C -3.1249999999999996 -0.7349999999999999 -3.1249999999999996 -0.688 -3.1709999999999994 -0.688 C -2.8029999999999995 -0.18399999999999994 -2.297999999999999 0.09200000000000008 -1.8379999999999994 0.506 L -1.8379999999999994 0.644 C -1.6999999999999993 0.827 -1.4709999999999994 0.919 -1.3789999999999993 1.149 C -1.3329999999999993 1.287 -1.1489999999999994 1.47 -0.9189999999999994 1.562 C -0.9649999999999994 1.609 -1.0569999999999995 1.609 -1.0569999999999995 1.7000000000000002 C -1.2409999999999994 1.7000000000000002 -1.4249999999999994 1.6090000000000002 -1.6089999999999995 1.7460000000000002 C -1.5229999999999995 1.8320000000000003 -1.4239999999999995 1.8790000000000002 -1.3199999999999996 1.9100000000000001 C -1.3599999999999997 1.9180000000000001 -1.3949999999999996 1.937 -1.4249999999999996 1.977 C -1.4709999999999996 2.068 -1.3359999999999996 2.1710000000000003 -1.1949999999999996 2.206 C -1.0109999999999997 2.252 -0.7809999999999997 2.252 -0.6429999999999996 2.391 C -0.9649999999999996 2.437 -1.3329999999999995 2.298 -1.6549999999999996 2.482 C -1.4249999999999996 3.079 -1.0569999999999995 3.5840000000000005 -0.5049999999999997 3.8600000000000003 C -0.4599999999999997 3.8600000000000003 -0.36799999999999966 3.8600000000000003 -0.36799999999999966 3.8140000000000005 C -0.36799999999999966 3.5840000000000005 -0.5049999999999997 3.4010000000000007 -0.7349999999999997 3.3550000000000004 C -0.368 3.264 0 3.264 0.368 3.079 C 0.322 2.987 0.23 3.033 0.184 3.033 C 0.414 2.896 0.689 2.987 0.919 2.804 C 0.781 2.666 0.643 2.804 0.505 2.804 C 1.93 2.391 3.447 2.068 4.642 1.149 C 3.631 0.644 2.574 0.414 1.471 0.185 C 1.3330000000000002 0.185 1.241 0.185 1.1030000000000002 0.22999999999999998 C 1.1030000000000002 0.185 1.1030000000000002 0.09199999999999997 1.0570000000000002 0.09199999999999997 C 0.873 0.092 0.735 0.092 0.598 0 C 0.414 -0.092 0.138 -0.138 0 0 M -0.941 -3.197 C -0.945 -3.199 -0.949 -3.202 -0.953 -3.205 C -1.125 -3.326 -1.296 -3.45 -1.4769999999999999 -3.555 C -1.674 -3.669 -1.879 -3.7560000000000002 -2.0839999999999996 -3.853 C -2.0849999999999995 -3.849 -2.0869999999999997 -3.845 -2.0889999999999995 -3.841 C -2.1049999999999995 -3.8200000000000003 -2.1369999999999996 -3.806 -2.1669999999999994 -3.8230000000000004 C -2.3409999999999993 -3.9170000000000003 -2.4889999999999994 -4.041 -2.6299999999999994 -4.175000000000001 C -2.6509999999999994 -4.195 -2.6719999999999993 -4.216000000000001 -2.6929999999999996 -4.237000000000001 C -2.6949999999999994 -4.238000000000001 -2.6959999999999997 -4.239000000000001 -2.6969999999999996 -4.240000000000001 C -2.6989999999999994 -4.241000000000001 -2.6999999999999997 -4.243000000000001 -2.7009999999999996 -4.244000000000001 C -2.7229999999999994 -4.266000000000001 -2.7439999999999998 -4.287000000000001 -2.7659999999999996 -4.309000000000001 C -2.7699999999999996 -4.312000000000001 -2.7709999999999995 -4.314000000000001 -2.7739999999999996 -4.317000000000001 C -2.7749999999999995 -4.318000000000001 -2.7749999999999995 -4.319000000000001 -2.7769999999999997 -4.321000000000001 C -2.8089999999999997 -4.353000000000001 -2.8409999999999997 -4.386000000000001 -2.877 -4.428000000000001 C -2.9 -4.455000000000001 -2.9069999999999996 -4.472 -2.9379999999999997 -4.493000000000001 C -2.9669999999999996 -4.512000000000001 -3.045 -4.511000000000001 -3.038 -4.458000000000001 L -3.038 -4.449000000000001 C -3.065 -4.464 -3.0919999999999996 -4.478000000000001 -3.1189999999999998 -4.4910000000000005 C -3.146 -4.503 -3.1679999999999997 -4.517 -3.191 -4.531000000000001 C -3.2009999999999996 -4.526000000000001 -3.2119999999999997 -4.525 -3.223 -4.526000000000001 C -3.235 -4.526000000000001 -3.246 -4.529000000000001 -3.256 -4.537000000000001 C -3.3129999999999997 -4.581 -3.368 -4.628000000000001 -3.4219999999999997 -4.6770000000000005 C -3.519 -4.764 -3.608 -4.859 -3.689 -4.96 C -3.69 -4.962 -3.691 -4.963 -3.693 -4.965 L -3.702 -4.977 C -3.707 -4.983 -3.711 -4.989 -3.716 -4.995 C -3.72 -5.001 -3.725 -5.008 -3.73 -5.014 C -3.732 -5.016 -3.733 -5.018 -3.734 -5.02 C -3.745 -5.035 -3.755 -5.05 -3.766 -5.066 L -3.769 -5.068 C -3.775 -5.077 -3.7880000000000003 -5.082999999999999 -3.805 -5.085999999999999 C -3.8120000000000003 -5.076999999999999 -3.818 -5.068 -3.8240000000000003 -5.058999999999999 C -3.8280000000000003 -5.052 -3.833 -5.044 -3.837 -5.036999999999999 C -3.85 -5.012999999999999 -3.8640000000000003 -4.987999999999999 -3.8760000000000003 -4.962999999999999 L -3.8770000000000002 -4.959999999999999 C -3.8810000000000002 -4.952999999999999 -3.8840000000000003 -4.944999999999999 -3.8880000000000003 -4.936999999999999 C -3.8380000000000005 -4.8839999999999995 -3.7910000000000004 -4.829 -3.744 -4.771999999999999 C -3.741 -4.768 -3.737 -4.765 -3.7340000000000004 -4.760999999999999 C -3.7190000000000003 -4.741 -3.7030000000000003 -4.7219999999999995 -3.6880000000000006 -4.701999999999999 C -3.6610000000000005 -4.668999999999999 -3.6350000000000007 -4.635999999999999 -3.6100000000000008 -4.603999999999999 C -3.600000000000001 -4.590999999999999 -3.5910000000000006 -4.578999999999999 -3.5830000000000006 -4.566999999999999 C -3.5310000000000006 -4.5009999999999994 -3.4830000000000005 -4.436999999999999 -3.4380000000000006 -4.372999999999999 C -3.4380000000000006 -4.3709999999999996 -3.4370000000000007 -4.369999999999999 -3.436000000000001 -4.367999999999999 C -3.428000000000001 -4.358999999999999 -3.4210000000000007 -4.348999999999999 -3.416000000000001 -4.3389999999999995 C -3.394000000000001 -4.3069999999999995 -3.371000000000001 -4.273999999999999 -3.3530000000000006 -4.239999999999999 C -3.3340000000000005 -4.209999999999999 -3.3170000000000006 -4.18 -3.3010000000000006 -4.148999999999999 C -3.3000000000000007 -4.145999999999999 -3.299000000000001 -4.143999999999999 -3.2980000000000005 -4.1419999999999995 C -3.2960000000000007 -4.138999999999999 -3.2940000000000005 -4.135 -3.2930000000000006 -4.132 C -3.291000000000001 -4.127 -3.2880000000000007 -4.1209999999999996 -3.2860000000000005 -4.114999999999999 C -3.2700000000000005 -4.0809999999999995 -3.2550000000000003 -4.044999999999999 -3.2420000000000004 -4.007999999999999 C -3.2400000000000007 -4.004 -3.2390000000000003 -3.999999999999999 -3.2380000000000004 -3.995999999999999 C -3.2340000000000004 -3.9859999999999993 -3.2310000000000003 -3.975999999999999 -3.2280000000000006 -3.9659999999999993 C -3.222000000000001 -3.9499999999999993 -3.2170000000000005 -3.9319999999999995 -3.2130000000000005 -3.914999999999999 C -3.2120000000000006 -3.911999999999999 -3.2110000000000007 -3.907999999999999 -3.2100000000000004 -3.903999999999999 C -3.2050000000000005 -3.8819999999999992 -3.1990000000000003 -3.859999999999999 -3.1940000000000004 -3.836999999999999 C -3.1920000000000006 -3.823999999999999 -3.1950000000000003 -3.814999999999999 -3.2 -3.8059999999999987 C -3.1500000000000004 -3.7189999999999985 -3.088 -3.635999999999999 -3.0180000000000002 -3.557999999999999 C -3.0250000000000004 -3.561999999999999 -3.032 -3.564999999999999 -3.039 -3.569999999999999 C -3.105 -3.6119999999999988 -3.148 -3.670999999999999 -3.209 -3.7169999999999987 C -3.259 -3.7539999999999987 -3.353 -3.691999999999999 -3.293 -3.647999999999999 C -3.2520000000000002 -3.617999999999999 -3.221 -3.5849999999999986 -3.188 -3.5529999999999986 C -3.1870000000000003 -3.550999999999999 -3.1860000000000004 -3.5479999999999987 -3.1830000000000003 -3.5459999999999985 C -3.107 -3.4709999999999983 -3.035 -3.3759999999999986 -2.9490000000000003 -3.3129999999999984 C -2.8960000000000004 -3.2739999999999982 -2.85 -3.241999999999998 -2.8070000000000004 -3.2049999999999983 C -2.8000000000000003 -3.1989999999999985 -2.7940000000000005 -3.1929999999999983 -2.7870000000000004 -3.185999999999998 C -2.7550000000000003 -3.1439999999999984 -2.72 -3.105999999999998 -2.684 -3.069999999999998 C -2.6820000000000004 -3.068999999999998 -2.681 -3.066999999999998 -2.6790000000000003 -3.065999999999998 C -2.24 -2.6409999999999982 -1.4990000000000003 -2.659999999999998 -0.9190000000000003 -2.389999999999998 C -0.6890000000000003 -2.297999999999998 -0.41400000000000026 -2.4359999999999977 -0.18400000000000027 -2.389999999999998 C -0.04600000000000026 -2.389999999999998 0.09199999999999975 -2.389999999999998 0.2299999999999997 -2.480999999999998 C -0.18300000000000027 -2.706999999999998 -0.5650000000000004 -2.959999999999998 -0.9410000000000003 -3.1969999999999983 M -0.11700000000000033 -3.5759999999999983 C -0.13900000000000032 -3.6269999999999984 -0.18500000000000033 -3.669999999999998 -0.23100000000000032 -3.7109999999999985 C -0.17300000000000032 -3.7219999999999986 -0.1330000000000003 -3.7479999999999984 -0.17000000000000032 -3.7819999999999987 C -0.2770000000000003 -3.8799999999999986 -0.37800000000000034 -3.977999999999999 -0.5190000000000003 -4.024999999999999 C -0.5280000000000004 -4.027999999999999 -0.5560000000000004 -4.031999999999998 -0.5890000000000004 -4.033999999999999 C -0.6460000000000005 -4.088999999999999 -0.7020000000000004 -4.142999999999999 -0.7610000000000003 -4.1949999999999985 C -0.8150000000000004 -4.2429999999999986 -1.0680000000000003 -4.207999999999998 -0.9910000000000003 -4.139999999999999 C -0.8740000000000003 -4.036999999999999 -0.7660000000000003 -3.9239999999999986 -0.6510000000000002 -3.8189999999999986 C -0.5860000000000003 -3.7599999999999985 -0.5170000000000002 -3.7029999999999985 -0.46000000000000024 -3.635999999999999 C -0.42800000000000027 -3.598999999999999 -0.40100000000000025 -3.562999999999999 -0.3610000000000002 -3.533999999999999 C -0.32300000000000023 -3.507999999999999 -0.08000000000000018 -3.485999999999999 -0.11700000000000021 -3.5759999999999987 M -2.252 3.31 C -2.298 3.217 -2.349 3.207 -2.39 3.125 C -2.437 3.033 -2.482 2.987 -2.574 2.941 C -2.6189999999999998 2.941 -2.667 2.941 -2.667 2.9869999999999997 C -2.6189999999999998 3.171 -2.4819999999999998 3.3549999999999995 -2.298 3.401 C -2.2520000000000002 3.401 -2.2520000000000002 3.355 -2.2520000000000002 3.3099999999999996 M -6.066 0.276 C -6.066 0.276 -6.112 0.322 -6.112 0.368 C -5.515000000000001 1.149 -5.055 1.884 -4.643 2.711 C -4.044 3.033 -3.548 3.502 -3.0789999999999997 3.9979999999999998 C -2.2979999999999996 4.824999999999999 -1.4709999999999996 5.561 -0.5049999999999999 6.02 C -0.138 6.158 0.322 6.112 0.689 5.974 C 0.551 5.79 0.322 5.837 0.138 5.698 C 0.092 5.698 0.046 5.698 0 5.745 C 0.046 5.79 0.046 5.837 0.046 5.882 C -0.414 5.377 -1.057 5.147 -1.425 4.55 C -1.7 4.09 -1.884 3.493 -2.482 3.355 C -2.667 3.31 -2.437 3.493 -2.528 3.447 C -3.952 2.574 -4.963 1.518 -6.066 0.276 M 0.9649999999999999 -0.7349999999999999 C 0.8729999999999999 -0.7349999999999999 0.6889999999999998 -0.7809999999999999 0.7349999999999999 -0.6879999999999998 C 0.7809999999999999 -0.45899999999999985 1.1029999999999998 -0.45899999999999985 1.287 -0.3679999999999998 C 1.379 -0.32199999999999984 1.516 -0.22899999999999981 1.6079999999999999 -0.2749999999999998 C 1.7 -0.414 1.838 -0.368 1.93 -0.459 C 1.654 -0.735 1.287 -0.597 0.965 -0.735 M 8.032 -4.027 C 8.293 -3.766 8.557 -3.486 8.819 -3.205 L 8.813 -3.205 C 9.301 -2.652 9.780000000000001 -2.125 10.346 -1.641 C 10.518 -1.486 10.686 -1.35 10.846 -1.241 C 10.892 -1.195 10.892 -1.1030000000000002 10.937 -1.0570000000000002 C 10.708 -1.1480000000000001 10.57 -1.3330000000000002 10.34 -1.4250000000000003 C 10.294 -1.4250000000000003 10.248 -1.3790000000000002 10.294 -1.3330000000000002 C 10.458 -1.2100000000000002 10.621 -1.0870000000000002 10.785 -0.9640000000000002 C 10.775 -0.9650000000000002 10.764 -0.9650000000000002 10.754 -0.9650000000000002 C 10.708 -0.9650000000000002 10.708 -0.9190000000000002 10.708 -0.8730000000000002 C 10.11 -0.781 9.651 -1.195 9.237 -1.562 C 9.145 -1.607 9.053 -1.516 9.008 -1.516 C 8.318 -1.746 7.813 -2.344 7.123 -2.62 L 7.123 -2.528 C 6.847 -2.62 6.58 -2.786 6.296 -2.849 C 5.882 -2.94 5.515 -2.895 5.147 -2.895 C 4.59 -2.951 4.033 -3.074 3.476 -3.193 L 3.428 -3.205 C 3.129 -3.286 2.847 -3.398 2.572 -3.549 C 2.561 -3.556 2.55 -3.562 2.54 -3.568 C 2.517 -3.596 2.495 -3.624 2.474 -3.647 C 2.375 -3.756 2.29 -3.855 2.159 -3.922 C 1.876 -4.066 1.646 -4.316 1.396 -4.519 C 1.379 -4.534 1.351 -4.541 1.323 -4.543 C 1.076 -4.779 0.833 -5.019 0.583 -5.251 C 0.565 -5.268 0.494 -5.277 0.442 -5.268 C 0.444 -5.2669999999999995 0.445 -5.266 0.446 -5.264 C 0.455 -5.2490000000000006 0.464 -5.235 0.47300000000000003 -5.220000000000001 C 0.512 -5.155 0.551 -5.091000000000001 0.591 -5.026000000000001 C 0.635 -4.954000000000001 0.6809999999999999 -4.883000000000001 0.727 -4.813000000000001 C 0.79 -4.718000000000001 0.854 -4.6240000000000006 0.9219999999999999 -4.533 C 0.94 -4.509 0.9359999999999999 -4.488 0.9209999999999999 -4.473000000000001 C 0.9059999999999999 -4.457000000000001 0.8819999999999999 -4.448 0.857 -4.449000000000001 C 1.087 -4.226000000000001 1.359 -4.037000000000001 1.629 -3.8730000000000007 L 1.629 -3.8650000000000007 C 1.598 -3.876000000000001 1.553 -3.851000000000001 1.577 -3.819000000000001 C 1.6059999999999999 -3.778000000000001 1.629 -3.7350000000000008 1.656 -3.694000000000001 C 1.6609999999999998 -3.680000000000001 1.666 -3.6670000000000007 1.6709999999999998 -3.653000000000001 C 1.659 -3.641 1.647 -3.629 1.636 -3.616 C 1.562 -3.665 1.483 -3.711 1.42 -3.768 C 1.31 -3.866 1.224 -4.069 1.057 -4.067 C 1.046 -4.067 1.014 -4.065 0.9869999999999999 -4.057 C 0.9669999999999999 -4.054 0.9499999999999998 -4.048 0.9389999999999998 -4.041 C 0.9409999999999998 -4.037000000000001 0.9429999999999998 -4.034000000000001 0.9449999999999998 -4.03 L 0.9519999999999998 -4.017 C 0.9539999999999998 -4.014 0.9559999999999998 -4.010000000000001 0.9579999999999999 -4.006 C 0.9659999999999999 -3.9930000000000003 0.9729999999999999 -3.979 0.9799999999999999 -3.966 C 0.9879999999999999 -3.9530000000000003 0.9949999999999999 -3.9400000000000004 1.0019999999999998 -3.927 C 1.0079999999999998 -3.916 1.0139999999999998 -3.9050000000000002 1.0199999999999998 -3.895 C 1.0309999999999997 -3.875 1.0409999999999997 -3.856 1.0519999999999998 -3.836 C 1.0599999999999998 -3.822 1.0689999999999997 -3.8089999999999997 1.0759999999999998 -3.795 C 1.0959999999999999 -3.761 1.1159999999999999 -3.727 1.136 -3.694 C 1.1449999999999998 -3.677 1.154 -3.661 1.164 -3.645 C 1.1809999999999998 -3.617 1.196 -3.589 1.2129999999999999 -3.561 C 1.2359999999999998 -3.523 1.212 -3.492 1.178 -3.479 C 1.264 -3.369 1.3679999999999999 -3.2760000000000002 1.4929999999999999 -3.205 L 1.48 -3.205 C 1.655 -3.116 1.831 -3.009 2.007 -2.91 C 2.033 -2.8880000000000003 2.057 -2.866 2.083 -2.8440000000000003 C 1.8210000000000002 -2.9320000000000004 1.5850000000000002 -3.051 1.3520000000000003 -3.205 C 1.3520000000000003 -3.205 1.2920000000000003 -3.23 1.2740000000000002 -3.247 C 1.2740000000000002 -3.247 1.2220000000000002 -3.266 1.1600000000000001 -3.205 C 1.1540000000000001 -3.196 1.1490000000000002 -3.186 1.1490000000000002 -3.1710000000000003 C 1.1950000000000003 -3.079 1.3330000000000002 -3.0330000000000004 1.4250000000000003 -2.9400000000000004 C 1.4710000000000003 -2.9400000000000004 1.5160000000000002 -2.9400000000000004 1.5160000000000002 -2.9870000000000005 C 2.987 -1.8380000000000005 5.009 -2.1140000000000008 6.71 -1.5160000000000005 C 6.8469999999999995 -1.4250000000000005 6.985 -1.3330000000000004 7.123 -1.2410000000000005 C 7.353000000000001 -1.1480000000000006 7.537 -0.9190000000000005 7.813000000000001 -0.7810000000000006 C 8.18 -0.5050000000000006 8.456000000000001 -0.1840000000000006 8.594000000000001 0.27599999999999936 C 8.594000000000001 0.32199999999999934 8.548000000000002 0.3679999999999993 8.548000000000002 0.3679999999999993 C 7.951 -0.275 7.261 -0.781 6.526 -1.148 C 5.561 -1.654 4.504 -1.562 3.493 -1.7 C 3.5389999999999997 -1.607 3.631 -1.607 3.722 -1.607 C 3.722 -1.471 3.814 -1.425 3.906 -1.333 L 4.0440000000000005 -1.333 C 4.090000000000001 -1.333 4.090000000000001 -1.2409999999999999 4.136 -1.2409999999999999 C 4.228 -1.2409999999999999 4.3660000000000005 -1.1949999999999998 4.32 -1.1949999999999998 C 4.182 -1.011 3.906 -1.3329999999999997 3.676 -1.1949999999999998 C 3.7680000000000002 -1.1029999999999998 3.722 -0.9649999999999999 3.814 -0.9189999999999998 L 3.998 -0.9189999999999998 C 3.998 -0.8269999999999998 4.09 -0.7349999999999999 4.09 -0.7349999999999999 C 4.779 -0.3219999999999999 5.423 1.1102230246251565e-16 6.066 0.3680000000000001 C 5.928 0.3680000000000001 5.835999999999999 0.2300000000000001 5.699 0.3220000000000001 C 5.79 0.3220000000000001 5.699 0.46000000000000013 5.79 0.46000000000000013 C 6.296 0.5980000000000001 6.71 0.8730000000000001 7.215 1.0570000000000002 C 7.031 1.0570000000000002 6.893 0.9190000000000002 6.71 1.0570000000000002 C 6.802 1.104 6.8469999999999995 1.1950000000000003 6.985 1.1950000000000003 L 6.985 1.3330000000000002 C 6.985 1.3790000000000002 7.031000000000001 1.3790000000000002 7.077 1.3790000000000002 C 7.031 1.3790000000000002 6.985 1.4250000000000003 6.985 1.4250000000000003 C 7.031000000000001 1.5180000000000002 7.1690000000000005 1.4700000000000002 7.261 1.5620000000000003 C 7.215 1.5620000000000003 7.123 1.5620000000000003 7.123 1.6090000000000002 C 7.261 1.7920000000000003 7.4910000000000005 1.8380000000000003 7.721 1.8840000000000003 C 7.674 1.9770000000000003 7.537 1.8840000000000003 7.537 1.9770000000000003 C 7.537 2.0220000000000002 7.583 2.0220000000000002 7.629 2.0220000000000002 L 7.537 2.0220000000000002 C 7.445 2.068 7.491 2.16 7.491 2.206 C 7.767 2.527 7.767 2.941 7.904 3.31 C 7.858 3.31 7.813 3.31 7.813 3.355 C 7.353 2.85 6.618 2.666 5.928 2.482 L 5.699 2.482 C 5.469 2.391 5.147 2.391 4.917 2.527 C 4.733 2.619 4.642 2.757 4.458 2.896 C 4.09 3.125 3.722 3.31 3.309 3.447 C 2.16 3.814 0.965 3.998 -0.23 3.952 C 0.276 4.229 0.833 4.251 1.379 4.412 C 2.16 4.641 2.895 4.917 3.722 4.8709999999999996 C 3.585 4.917 3.401 4.8709999999999996 3.263 4.8709999999999996 C 2.619 4.917 1.976 4.733 1.287 4.596 C 0.827 4.504 0.414 4.32 -0.046 4.229 C -0.322 4.137 -0.46 3.86 -0.781 3.906 L -0.781 4.0440000000000005 C -0.322 4.596 0.22999999999999987 5.147 0.965 5.1930000000000005 C 1.7919999999999998 5.331 2.574 5.1930000000000005 3.401 5.101000000000001 C 3.998 5.055 4.55 4.917 5.147 4.78 C 5.377000000000001 4.78 5.423 4.412 5.607 4.3660000000000005 C 5.882000000000001 4.274000000000001 6.158 4.3660000000000005 6.434 4.183000000000001 C 6.434 4.274000000000001 6.388 4.3660000000000005 6.434 4.458000000000001 C 6.618 4.641 6.847 4.412 7.031 4.504 C 7.399 4.733 6.71 5.147 6.526 5.469 C 6.526 5.515 6.572 5.561 6.572 5.561 C 6.939 5.239 7.215 4.871 7.674 4.641 C 7.904 4.55 8.456 4.412 8.364 4.688 C 8.134 5.193 7.674 5.607 7.307 6.066 L 7.307 6.25 C 7.215 6.25 7.215 6.296 7.169 6.342 L 7.169 6.526 C 6.985 6.618 7.031 6.802 6.939 6.939 C 6.802 7.169 6.893 7.491 6.802 7.768 C 6.71 8.042 6.664 8.272 6.618 8.548 C 6.48 9.33 6.296 10.019 6.204 10.754 C 6.112 11.626999999999999 6.71 12.315999999999999 7.122999999999999 13.099 C 7.444999999999999 13.649000000000001 7.812999999999999 14.201 8.41 14.568 C 8.548 15.121 8.916 15.58 9.283 16.04 C 9.649999999999999 16.487 10.26 16.759999999999998 10.702 16.958 C 11.344 17.246 11.923 17.424 11.923 17.424 L -19.616999999999997 17.424 L -19.616999999999997 -6.895 L 2.719 -6.895 C 3.594 -6.266 4.468 -5.965999999999999 5.689 -5.364999999999999 C 6.266 -5.079999999999999 7.585 -4.473999999999999 8.032 -4.026999999999999" stroke-linecap="round" />
</g>
		<g transform="matrix(1.33 0 0 -1.33 24.85 -0.04)" clip-path="url(#CLIPPATH_5)"  >
<clipPath id="CLIPPATH_5" >
	<path transform="matrix(1 0 0 1 -18.67 0) translate(-33.44, -12.16)" d="M 0 24.32 L 66.878 24.32 L 66.878 0 L 0 0 Z" stroke-linecap="round" />
</clipPath>
<path style="stroke: none; stroke-width: 1; stroke-dasharray: none; stroke-linecap: butt; stroke-dashoffset: 0; stroke-linejoin: miter; stroke-miterlimit: 4; fill: rgb(225,0,15); fill-rule: nonzero; opacity: 1;" vector-effect="non-scaling-stroke"  transform=" translate(14.77, 12.16)" d="M 0 0 L -26.161 0 C -26.161 0 -26.112000000000002 -0.008 -25.912000000000003 -0.115 C -25.700000000000003 -0.229 -25.426000000000002 -0.376 -25.254 -0.46599999999999997 C -24.915000000000003 -0.643 -24.588 -0.864 -24.377000000000002 -1.202 C -24.284000000000002 -1.339 -24.146 -1.615 -24.238000000000003 -1.799 C -24.330000000000002 -2.029 -24.377000000000002 -2.396 -24.606 -2.489 C -24.883000000000003 -2.626 -25.249000000000002 -2.626 -25.571 -2.58 C -25.756 -2.58 -25.939 -2.5340000000000003 -26.123 -2.489 C -25.434 -2.764 -24.790000000000003 -3.086 -24.330000000000002 -3.729 C -24.284000000000002 -3.821 -24.102 -3.867 -23.917 -3.867 C -23.871000000000002 -3.867 -23.871000000000002 -3.959 -23.871000000000002 -4.005 C -23.964000000000002 -4.0969999999999995 -24.056 -4.143 -24.01 -4.281 L -23.871000000000002 -4.281 C -23.642000000000003 -4.189 -23.687 -3.7289999999999996 -23.365000000000002 -3.8669999999999995 C -23.136000000000003 -4.005 -23.045 -4.327 -23.182000000000002 -4.555999999999999 C -23.365000000000002 -4.739999999999999 -23.55 -4.877999999999999 -23.733 -5.015999999999999 C -23.779 -5.107999999999999 -23.779 -5.2459999999999996 -23.733 -5.337999999999999 C -23.596 -5.521999999999999 -23.55 -5.704999999999999 -23.504 -5.888999999999999 C -23.365000000000002 -6.210999999999999 -23.319000000000003 -6.578999999999999 -23.182000000000002 -6.8999999999999995 C -22.997000000000003 -7.59 -22.814000000000004 -8.279 -22.860000000000003 -8.968 C -22.860000000000003 -9.336 -23.045 -9.657 -22.906000000000002 -10.025 C -22.814000000000004 -10.394 -22.584000000000003 -10.669 -22.400000000000002 -10.99 C -22.217000000000002 -11.267 -22.033 -11.450000000000001 -21.896 -11.727 C -21.619 -12.186 -21.113 -12.646 -21.344 -13.196 C -21.481 -13.519 -21.987000000000002 -13.472999999999999 -22.309 -13.656 C -22.584 -13.886000000000001 -22.354000000000003 -14.253 -22.217000000000002 -14.483 C -21.987000000000002 -14.897 -22.492 -15.173 -22.814000000000004 -15.311 C -22.723000000000003 -15.448 -22.538000000000004 -15.402 -22.492000000000004 -15.494 C -22.446000000000005 -15.725 -22.217000000000006 -15.862 -22.354000000000003 -16.092 C -22.538000000000004 -16.366999999999997 -23.091 -16.506 -22.814000000000004 -16.918999999999997 C -22.631000000000004 -17.24 -22.749000000000002 -17.598999999999997 -22.860000000000003 -17.930999999999997 C -22.997000000000003 -18.343999999999998 -23.365000000000002 -18.526999999999997 -23.687000000000005 -18.618999999999996 C -23.964000000000006 -18.711999999999996 -24.284000000000006 -18.711999999999996 -24.561000000000003 -18.664999999999996 C -24.652000000000005 -18.618999999999996 -24.744000000000003 -18.572999999999997 -24.837000000000003 -18.572999999999997 C -25.617000000000004 -18.480999999999998 -26.398000000000003 -18.251999999999995 -27.181000000000004 -18.251999999999995 C -27.409000000000006 -18.297999999999995 -27.640000000000004 -18.343999999999994 -27.823000000000004 -18.435999999999996 C -28.031000000000002 -18.588999999999995 -28.216000000000005 -18.753999999999998 -28.380000000000003 -18.927999999999997 L -28.386000000000003 -18.933999999999997 C -28.42 -18.970999999999997 -28.452 -19.008 -28.485000000000003 -19.044999999999998 C -28.506000000000004 -19.067999999999998 -28.525000000000002 -19.092 -28.545 -19.115 C -28.558000000000003 -19.131999999999998 -28.57 -19.145999999999997 -28.584000000000003 -19.162 C -28.718000000000004 -19.33 -28.839000000000002 -19.509 -28.945000000000004 -19.692 C -28.952000000000005 -19.704 -28.960000000000004 -19.716 -28.966000000000005 -19.728 C -28.979000000000006 -19.749000000000002 -28.989000000000004 -19.771 -29.002000000000006 -19.791 C -29.152000000000005 -20.071 -29.267000000000007 -20.356 -29.350000000000005 -20.636 C -29.661000000000005 -21.686999999999998 -29.524000000000004 -22.591 -29.307000000000006 -22.81 C -29.244000000000007 -22.871 -27.789000000000005 -23.32 -26.775000000000006 -23.770999999999997 C -26.300000000000004 -23.981999999999996 -25.967000000000006 -24.145999999999997 -25.690000000000005 -24.319999999999997 L -3.552713678800501e-15 -24.319999999999997 z" stroke-linecap="round" />
</g>
		<g transform="matrix(1.33 0 0 -1.33 11.39 -3.24)" clip-path="url(#CLIPPATH_6)"  >
<clipPath id="CLIPPATH_6" >
	<path transform="matrix(1 0 0 1 -8.55 -2.42) translate(-33.44, -12.16)" d="M 0 24.32 L 66.878 24.32 L 66.878 0 L 0 0 Z" stroke-linecap="round" />
</clipPath>
<path style="stroke: none; stroke-width: 1; stroke-dasharray: none; stroke-linecap: butt; stroke-dashoffset: 0; stroke-linejoin: miter; stroke-miterlimit: 4; fill: rgb(156,155,155); fill-rule: nonzero; opacity: 1;" vector-effect="non-scaling-stroke"  transform=" translate(0.29, 0.87)" d="M 0 0 C 0.185 -0.046 0.459 -0.046 0.459 -0.138 C 0.368 -0.505 -0.184 -0.597 -0.46 -0.965 L -0.5980000000000001 -0.965 C -0.7350000000000001 -1.057 -0.6880000000000001 -1.287 -0.8270000000000001 -1.287 C -0.9650000000000001 -1.2409999999999999 -1.1030000000000002 -1.287 -1.241 -1.333 C -1.0570000000000002 -1.516 -0.8270000000000002 -1.655 -0.5520000000000002 -1.608 C -0.5050000000000001 -1.608 -0.41400000000000015 -1.7000000000000002 -0.41400000000000015 -1.792 C -0.41400000000000015 -1.792 -0.36800000000000016 -1.792 -0.3220000000000002 -1.746 C -0.2760000000000002 -1.746 -0.22900000000000018 -1.746 -0.22900000000000018 -1.792 L -0.22900000000000018 -1.976 C -0.3680000000000002 -2.16 -0.5980000000000002 -2.068 -0.7820000000000003 -2.114 C -0.41400000000000026 -2.206 -0.04600000000000026 -2.206 0.2749999999999997 -2.114 C 0.5509999999999997 -2.022 0.2749999999999997 -1.5619999999999998 0.4589999999999997 -1.3329999999999997 C 0.36799999999999966 -1.3329999999999997 0.4589999999999997 -1.1949999999999998 0.36799999999999966 -1.1949999999999998 C 0.45899999999999963 -1.1029999999999998 0.5509999999999997 -0.9649999999999999 0.6439999999999997 -0.9189999999999998 C 0.7349999999999997 -0.9189999999999998 0.8729999999999997 -0.8729999999999998 0.9189999999999997 -0.7809999999999998 C 0.9189999999999997 -0.6889999999999998 0.7349999999999997 -0.6429999999999998 0.7809999999999997 -0.5509999999999998 C 1.0569999999999997 -0.3679999999999998 1.2869999999999997 -0.0919999999999998 1.1949999999999996 0.18400000000000016 C 1.1489999999999996 0.3220000000000002 0.7809999999999997 0.3220000000000002 0.5509999999999996 0.41400000000000015 C 0.3219999999999996 0.5050000000000001 0.0459999999999996 0.41400000000000015 -0.22900000000000043 0.36800000000000016 C -0.4600000000000004 0.36800000000000016 -0.6880000000000004 0.23000000000000015 -0.9190000000000004 0.18400000000000016 C -1.2410000000000003 0.09200000000000016 -1.5170000000000003 -0.09199999999999986 -1.7930000000000004 -0.27599999999999986 C -1.4710000000000003 -0.13799999999999985 -1.1490000000000005 -0.09199999999999986 -0.7820000000000005 1.6653345369377348e-16 C -0.5050000000000004 1.6653345369377348e-16 -0.27100000000000046 0.06800000000000017 -4.440892098500626e-16 1.6653345369377348e-16" stroke-linecap="round" />
</g>
</g>
</g>
</svg>